/* XPM */
static char * icon_xpm[] = {
"32 32 558 2",
"  	c None",
". 	c #D7CEC2",
"+ 	c #BEAE9A",
"@ 	c #9D8569",
"# 	c #8F7352",
"$ 	c #83643D",
"% 	c #84643C",
"& 	c #93754E",
"* 	c #DAD0C4",
"= 	c #EDE9E3",
"- 	c #D3C8BB",
"; 	c #AA957B",
"> 	c #8B6E4A",
", 	c #7E5D35",
"' 	c #7C5A2F",
") 	c #78582E",
"! 	c #77582F",
"~ 	c #75572F",
"{ 	c #74562F",
"] 	c #74562E",
"^ 	c #73542C",
"/ 	c #7B572A",
"( 	c #BFAC95",
"_ 	c #E7DDCF",
": 	c #B19F88",
"< 	c #9D886C",
"[ 	c #896B46",
"} 	c #8D6C46",
"| 	c #896942",
"1 	c #846741",
"2 	c #81643E",
"3 	c #7C5F39",
"4 	c #7B5E38",
"5 	c #81643C",
"6 	c #85683F",
"7 	c #886A40",
"8 	c #896B40",
"9 	c #86673D",
"0 	c #82633B",
"a 	c #7E5D30",
"b 	c #A28864",
"c 	c #C1B4A1",
"d 	c #D1B893",
"e 	c #886E4A",
"f 	c #AA9577",
"g 	c #7C6546",
"h 	c #90744F",
"i 	c #82643E",
"j 	c #896C44",
"k 	c #8C7048",
"l 	c #8E734B",
"m 	c #90754D",
"n 	c #957A50",
"o 	c #987C50",
"p 	c #987C4F",
"q 	c #96794C",
"r 	c #95774A",
"s 	c #8E7045",
"t 	c #85673D",
"u 	c #7E5F33",
"v 	c #8A6A3F",
"w 	c #E4DED4",
"x 	c #A39179",
"y 	c #A88E67",
"z 	c #AB926F",
"A 	c #907959",
"B 	c #A69071",
"C 	c #997F5C",
"D 	c #967953",
"E 	c #8F734C",
"F 	c #987B54",
"G 	c #998058",
"H 	c #A2895F",
"I 	c #A28A5E",
"J 	c #9D8357",
"K 	c #9C8255",
"L 	c #9E8356",
"M 	c #9E8254",
"N 	c #9D8052",
"O 	c #937448",
"P 	c #8B6D42",
"Q 	c #826338",
"R 	c #7E5C2C",
"S 	c #C3B49E",
"T 	c #A1927D",
"U 	c #806137",
"V 	c #E7D8BF",
"W 	c #937854",
"X 	c #A89272",
"Y 	c #A0896A",
"Z 	c #A08560",
"` 	c #8E714C",
" .	c #957B53",
"..	c #9D835A",
"+.	c #A68C62",
"@.	c #A58B61",
"#.	c #9D8358",
"$.	c #9E8357",
"%.	c #A08559",
"&.	c #A5895C",
"*.	c #A3875B",
"=.	c #9B7E53",
"-.	c #927349",
";.	c #8B6C41",
">.	c #7E6038",
",.	c #775424",
"'.	c #A08867",
").	c #ACA496",
"!.	c #806037",
"~.	c #BCA684",
"{.	c #E6D5B7",
"].	c #715737",
"^.	c #B19A7B",
"/.	c #8D7454",
"(.	c #9C8059",
"_.	c #90744D",
":.	c #9B7F57",
"<.	c #9F845B",
"[.	c #A68D63",
"}.	c #A58C63",
"|.	c #A38A60",
"1.	c #A58B60",
"2.	c #A4895E",
"3.	c #A4875D",
"4.	c #9F8257",
"5.	c #96774D",
"6.	c #8D6E44",
"7.	c #85663C",
"8.	c #7D5E36",
"9.	c #7C5B2E",
"0.	c #8A6B42",
"a.	c #E8E2DB",
"b.	c #CCCDCB",
"c.	c #765E3E",
"d.	c #A3875E",
"e.	c #DECEB5",
"f.	c #9A805E",
"g.	c #877050",
"h.	c #B09878",
"i.	c #8F7552",
"j.	c #9D8058",
"k.	c #90744C",
"l.	c #997D54",
"m.	c #A38860",
"n.	c #A18760",
"o.	c #A58B63",
"p.	c #A58A61",
"q.	c #A1865C",
"r.	c #9F8359",
"s.	c #9A7D54",
"t.	c #97794F",
"u.	c #917247",
"v.	c #86663D",
"w.	c #83633A",
"x.	c #7D5D35",
"y.	c #795930",
"z.	c #755025",
"A.	c #C6B7A6",
"B.	c #A4A4A5",
"C.	c #886D46",
"D.	c #A1875E",
"E.	c #D2BE9F",
"F.	c #745736",
"G.	c #978162",
"H.	c #AD9777",
"I.	c #937853",
"J.	c #987B53",
"K.	c #947850",
"L.	c #9A7F57",
"M.	c #9C8159",
"N.	c #9F845D",
"O.	c #9D835B",
"P.	c #A0845B",
"Q.	c #9B7E55",
"R.	c #977950",
"S.	c #94764C",
"T.	c #907047",
"U.	c #886940",
"V.	c #85653D",
"W.	c #805F37",
"X.	c #775730",
"Y.	c #75542F",
"Z.	c #6A451A",
"`.	c #9C8368",
" +	c #D9DADC",
".+	c #857B6E",
"++	c #886737",
"@+	c #CAB99F",
"#+	c #CDB797",
"$+	c #624526",
"%+	c #9D876A",
"&+	c #957952",
"*+	c #967A52",
"=+	c #987C55",
"-+	c #967A53",
";+	c #977B53",
">+	c #997C54",
",+	c #96784E",
"'+	c #92734A",
")+	c #8D6D45",
"!+	c #8B6B43",
"~+	c #86663E",
"{+	c #816039",
"]+	c #7C5C35",
"^+	c #76552F",
"/+	c #765632",
"(+	c #6E4A25",
"_+	c #785A3A",
":+	c #EAE5E1",
"<+	c #B3B5B8",
"[+	c #7F633B",
"}+	c #A78E68",
"|+	c #ECDFC6",
"1+	c #937554",
"2+	c #765F42",
"3+	c #C8B291",
"4+	c #937C5D",
"5+	c #977B54",
"6+	c #8D7047",
"7+	c #8F7249",
"8+	c #93764D",
"9+	c #997A52",
"0+	c #977A50",
"a+	c #93754C",
"b+	c #8F7148",
"c+	c #8F6F47",
"d+	c #8A6A43",
"e+	c #85653E",
"f+	c #82623B",
"g+	c #7D5B36",
"h+	c #795732",
"i+	c #75532F",
"j+	c #674726",
"k+	c #654423",
"l+	c #573412",
"m+	c #BFB2A7",
"n+	c #E8E9EC",
"o+	c #89847E",
"p+	c #94774B",
"q+	c #B29E80",
"r+	c #E5D4B6",
"s+	c #5F3B13",
"t+	c #897557",
"u+	c #CBB797",
"v+	c #846D4D",
"w+	c #94774E",
"x+	c #80643C",
"y+	c #896A41",
"z+	c #957850",
"A+	c #93744C",
"B+	c #9A7B54",
"C+	c #91724A",
"D+	c #907149",
"E+	c #876741",
"F+	c #81603A",
"G+	c #7E5D37",
"H+	c #775732",
"I+	c #775431",
"J+	c #6D4C29",
"K+	c #593B1B",
"L+	c #5B3B1D",
"M+	c #442201",
"N+	c #97836C",
"O+	c #C6C9CE",
"P+	c #756247",
"Q+	c #9B815B",
"R+	c #AC936B",
"S+	c #A68B68",
"T+	c #563B1F",
"U+	c #B4A081",
"V+	c #BBA889",
"W+	c #7C6341",
"X+	c #91754D",
"Y+	c #80643D",
"Z+	c #8C6F46",
"`+	c #957750",
" @	c #997B55",
".@	c #95764F",
"+@	c #8A6A44",
"@@	c #81623B",
"#@	c #7A5A35",
"$@	c #785833",
"%@	c #73522E",
"&@	c #6E4D2A",
"*@	c #684725",
"=@	c #624321",
"-@	c #5E3F20",
";@	c #583A1C",
">@	c #4F3013",
",@	c #7B592D",
"'@	c #E8D4B3",
")@	c #949290",
"!@	c #7C6038",
"~@	c #987F5A",
"{@	c #F1E3CA",
"]@	c #785838",
"^@	c #6E573C",
"/@	c #C7B494",
"(@	c #A49176",
"_@	c #806643",
":@	c #8A6D46",
"<@	c #7A5D37",
"[@	c #83653D",
"}@	c #8A6C44",
"|@	c #957751",
"1@	c #8D6E48",
"2@	c #84643E",
"3@	c #7E5E39",
"4@	c #7A5934",
"5@	c #72512D",
"6@	c #6F4E2A",
"7@	c #654523",
"8@	c #644323",
"9@	c #634223",
"0@	c #624121",
"a@	c #634120",
"b@	c #654F32",
"c@	c #B7B1A1",
"d@	c #CFD2D8",
"e@	c #897452",
"f@	c #967B51",
"g@	c #BAA688",
"h@	c #E3D1B6",
"i@	c #553517",
"j@	c #8A765A",
"k@	c #D8C6A7",
"l@	c #B5A489",
"m@	c #7E633E",
"n@	c #81643D",
"o@	c #71532F",
"p@	c #84653F",
"q@	c #80613C",
"r@	c #7B5B37",
"s@	c #785733",
"t@	c #71502D",
"u@	c #6F4F2D",
"v@	c #71502F",
"w@	c #6A4929",
"x@	c #654321",
"y@	c #64421F",
"z@	c #634C31",
"A@	c #665F51",
"B@	c #7F7F73",
"C@	c #A9A7A4",
"D@	c #907651",
"E@	c #A68D67",
"F@	c #D4C2A5",
"G@	c #573B20",
"H@	c #BEAC8F",
"I@	c #D9C6A9",
"J@	c #A69479",
"K@	c #755834",
"L@	c #856945",
"M@	c #755833",
"N@	c #7B5C37",
"O@	c #735530",
"P@	c #6B4D2A",
"Q@	c #6B4C2A",
"R@	c #775635",
"S@	c #775636",
"T@	c #765230",
"U@	c #6B4926",
"V@	c #5C472E",
"W@	c #5D584F",
"X@	c #8C8D85",
"Y@	c #ACAA9A",
"Z@	c #C3C1AE",
"`@	c #DEE0E4",
" #	c #8A7F71",
".#	c #B5996D",
"+#	c #947C5B",
"@#	c #EFE1C9",
"##	c #6E4C2B",
"$#	c #745E44",
"%#	c #CDBC9F",
"&#	c #907C62",
"*#	c #6E512E",
"=#	c #7E603D",
"-#	c #6A4D2A",
";#	c #6A4E2C",
">#	c #735433",
",#	c #735332",
"'#	c #795532",
")#	c #7B5732",
"!#	c #6E573F",
"~#	c #6F6A63",
"{#	c #9C9D98",
"]#	c #BDBBB1",
"^#	c #B6B3A5",
"/#	c #ACAD9E",
"(#	c #AEACA2",
"_#	c #B9BBBE",
":#	c #9B805A",
"<#	c #DAC9AD",
"[#	c #D3BFA4",
"}#	c #49290C",
"|#	c #A08E73",
"1#	c #DDCCAE",
"2#	c #D2C1A6",
"3#	c #938168",
"4#	c #654828",
"5#	c #795B39",
"6#	c #7C5F3E",
"7#	c #795A37",
"8#	c #7C5B36",
"9#	c #6B563E",
"0#	c #6B6762",
"a#	c #ACAFAF",
"b#	c #ECECE5",
"c#	c #BDBAB3",
"d#	c #A2A19B",
"e#	c #909087",
"f#	c #6B5C44",
"g#	c #66523A",
"h#	c #E2E5EB",
"i#	c #847560",
"j#	c #9B7D54",
"k#	c #B29A74",
"l#	c #EEE2CA",
"m#	c #896B48",
"n#	c #4D3317",
"o#	c #B8A78C",
"p#	c #DCCBAE",
"q#	c #E5D7BD",
"r#	c #6B5840",
"s#	c #4E3314",
"t#	c #77634B",
"u#	c #5D5956",
"v#	c #8C8D8E",
"w#	c #D4D4D3",
"x#	c #E3E1DE",
"y#	c #ABABA8",
"z#	c #969593",
"A#	c #71634E",
"B#	c #5D462A",
"C#	c #827B73",
"D#	c #D3D5D9",
"E#	c #C6C8CA",
"F#	c #6A5338",
"G#	c #B4986F",
"H#	c #B49F7F",
"I#	c #AD997B",
"J#	c #735D43",
"K#	c #B8A88E",
"L#	c #CCBA9F",
"M#	c #D2C1A7",
"N#	c #695740",
"O#	c #635F58",
"P#	c #828383",
"Q#	c #BFBEBC",
"R#	c #DEDCDA",
"S#	c #B8B8B9",
"T#	c #969594",
"U#	c #766854",
"V#	c #675031",
"W#	c #857B71",
"X#	c #BABDC1",
"Y#	c #E0E1E2",
"Z#	c #918C88",
"`#	c #8D714B",
" $	c #896D46",
".$	c #D4C4AB",
"+$	c #A79277",
"@$	c #3F2104",
"#$	c #867052",
"$$	c #958670",
"%$	c #676258",
"&$	c #706F6D",
"*$	c #A19F9B",
"=$	c #D0CFCD",
"-$	c #D2D3D4",
";$	c #AFAFB0",
">$	c #7B6D5B",
",$	c #685031",
"'$	c #887E71",
")$	c #E3E5E6",
"!$	c #D6D8DB",
"~$	c #705D47",
"{$	c #8F7147",
"]$	c #A38C6A",
"^$	c #E5D3B6",
"/$	c #7F6546",
"($	c #47463C",
"_$	c #59625F",
":$	c #8A8883",
"<$	c #ABA8A2",
"[$	c #BBBBB8",
"}$	c #B3B2B2",
"|$	c #847665",
"1$	c #6A5233",
"2$	c #877D6F",
"3$	c #BEC1C5",
"4$	c #E6E8EA",
"5$	c #ADAAA4",
"6$	c #6D512C",
"7$	c #A18560",
"8$	c #857457",
"9$	c #3D3029",
"0$	c #561E0E",
"a$	c #A0533D",
"b$	c #A09E97",
"c$	c #A6A7A3",
"d$	c #867968",
"e$	c #695237",
"f$	c #8A8175",
"g$	c #C0C1C4",
"h$	c #E8EAED",
"i$	c #E3E6E8",
"j$	c #72675D",
"k$	c #93744A",
"l$	c #4E4635",
"m$	c #4C3E33",
"n$	c #982B0F",
"o$	c #B7310E",
"p$	c #BD4B29",
"q$	c #68604B",
"r$	c #85796D",
"s$	c #C0C2C5",
"t$	c #E7E9EB",
"u$	c #BBBDBE",
"v$	c #55391A",
"w$	c #514937",
"x$	c #455249",
"y$	c #A83B1D",
"z$	c #FB633B",
"A$	c #E26745",
"B$	c #BDC6CA",
"C$	c #E8E7E8",
"D$	c #847C75",
"E$	c #3C250D",
"F$	c #3A2D1C",
"G$	c #B3614D",
"H$	c #FDA992",
"I$	c #F2AE9C",
"J$	c #D8D8D9",
"K$	c #ACADAE",
"L$	c #6C6C6D",
"M$	c #AF5A44",
"N$	c #F8896B",
"O$	c #EC8468",
"P$	c #6A6463",
"Q$	c #91381F",
"R$	c #F26A46",
"S$	c #E2532C",
"T$	c #DDEAED",
"U$	c #CDCCCC",
"V$	c #500000",
"W$	c #EA5A33",
"X$	c #A52300",
"Y$	c #954D3A",
"Z$	c #C7A39A",
"`$	c #BC3A17",
" %	c #B02D09",
".%	c #C45131",
"+%	c #CA8371",
"@%	c #FBECE8",
"#%	c #EBBAAD",
"$%	c #E39987",
"                                                                ",
"                  . + @ # $ % & *                               ",
"        = - ; > , ' ) ! ~ { ] ^ / (                             ",
"  _ : < [ } | 1 2 3 4 5 6 7 8 9 0 a b                           ",
"c d e f g h i j k l m n o p q r s t u v w                       ",
"x y z A B C D E F G H I J K L M N O P Q R S                     ",
"T U V W X Y Z `  ...+.@.#.$.%.&.*.=.-.;.>.,.'.                  ",
").!.~.{.].^./.(._.:.<.[.}.|.1.2.3.4.5.6.7.8.9.0.a.              ",
"b.c.d.e.f.g.h.i.j.k.l.m.n.o.p.q.r.s.t.u.v.w.x.y.z.A.            ",
"  B.C.D.E.F.G.H.I.J.K.L.M.N.O.P.Q.R.S.T.U.V.W.X.Y.Z.`.          ",
"   +.+++@+#+$+B %+&+L.K.*+=+-+;+>+,+'+)+!+~+{+]+^+/+(+_+:+      ",
"    <+[+}+|+1+2+3+4+5+k.6+7+8+9+0+a+b+c+d+e+f+g+h+i+j+k+l+m+    ",
"    n+o+p+q+r+s+t+u+v+w+x+y+b+z+A+B+C+D+E+F+G+H+I+J+k+K+L+M+N+  ",
"      O+P+Q+R+S+T+U+V+W+X+Y+Z+D+`+ @.@+@@@#@$@%@&@*@=@-@;@>@,@'@",
"        )@!@~@{@]@^@/@(@_@:@<@[@}@|@1@2@3@4@5@6@7@8@9@0@a@b@c@  ",
"        d@e@f@g@h@i@j@k@l@m@n@o@p@p@q@r@s@t@u@v@w@x@y@z@A@B@    ",
"          C@D@E@F@3 G@H@I@J@K@L@M@N@O@P@Q@R@S@T@U@V@W@X@Y@Z@    ",
"          `@ #.#+#@###$#%#%#&#*#=#-#;#>#,#'#)#!#~#{#]#^#/#(#    ",
"            _#W+:#<#[#}#|#1#2#3#4#5#6#7#8#9#0#a#b#c#d#e#f#g#    ",
"            h#i#j#k#l#m#n#o#p#q#r#s#> t#u#v#w#x#y#z#A#B#C#D#    ",
"              E#F#G#H#I#L+J#K#L#M#N#O#P#Q#R#S#T#U#V#W#X#Y#      ",
"                Z#`# $.$+$@$#$$$%$&$*$=$-$;$>$,$'$X#)$          ",
"                !$~${$]$^$/$($_$:$<$[$}$|$1$2$3$4$              ",
"                  5$6$7$8$9$0$a$b$c$d$e$f$g$h$                  ",
"                  i$j$k$l$m$n$o$p$q$r$s$t$                      ",
"                    u$v$w$x$y$z$A$B$C$                          ",
"                      D$E$F$G$H$I$                              ",
"                      J$K$L$M$N$O$                              ",
"                          P$Q$R$S$T$                            ",
"                          U$V$W$X$Y$                            ",
"                            Z$`$ %.%+%                          ",
"                              @%#%$%                            "};
